<svg xmlns="http://www.w3.org/2000/svg" viewBox="0 0 632.81 348.16"><defs><style>.cls-1,.cls-2,.cls-3{fill:#fff;}.cls-2{font-size:92.24px;font-family:Poppins-SemiBold, Poppins;font-weight:600;}.cls-3{font-size:38.61px;font-family:Poppins-Light, Poppins;font-weight:300;}</style></defs><title>logo-clara-texto-claro</title><g id="Camada_2" data-name="Camada 2"><path class="cls-1" d="M633.19,135.85a3.22,3.22,0,0,1-3.22-3.22V111a3.26,3.26,0,0,0-.5-1.74c-10.83-17.25-28.67-20.09-34.25-20.55A3,3,0,0,1,592.73,87l-16-34.73A5.61,5.61,0,0,0,571.66,49H522.71a3.22,3.22,0,0,1-3.22-3.22v-36a5.8,5.8,0,0,0-5.79-5.8H396.42a3.21,3.21,0,0,0-2.77,4.85l7.91,13.42a136.89,136.89,0,0,1,17.65,50.39c2.26,15.87,10.87,73.5,11.25,76.05a1.29,1.29,0,0,0,0,.19c.39,1.83,6.12,26.71,26.79,26.71,17.12,0,22.62-14.34,24.15-20.14a3.19,3.19,0,0,1,3.1-2.38h82.78a3.19,3.19,0,0,1,3.1,2.38c1.53,5.8,7,20.14,24.15,20.14s22.63-14.34,24.15-20.14a3.21,3.21,0,0,1,3.11-2.38h11.36a3.22,3.22,0,0,0,3.21-3.22V139.06A3.21,3.21,0,0,0,633.19,135.85ZM583.25,90.94a6.83,6.83,0,0,1-6.35,4.15H526a3.24,3.24,0,0,1-3.24-3.24V58.78a2.3,2.3,0,0,1,2.31-2.3h45.5a2.3,2.3,0,0,1,2.13,1.38c1.69,3.92,6.62,15.21,10.13,22.21A12.7,12.7,0,0,1,583.25,90.94Z" transform="translate(-3.6 -3.92)"/><path class="cls-1" d="M145.67,150.64" transform="translate(-3.6 -3.92)"/><path class="cls-1" d="M145.67,152.14a1.5,1.5,0,0,0,0-3,1.5,1.5,0,0,0,0,3Z" transform="translate(-3.6 -3.92)"/><text class="cls-2" transform="translate(113.16 265)">TRIMLOG</text><text class="cls-3" transform="translate(84.85 326.38)">TRANSPORTE E LOGÍSTICA</text><path class="cls-1" d="M418.26,149.56l-6.14-35.49-5.24-36.14-4.29-21.45a94.2,94.2,0,0,0-12.27-32c-5.93-9.81-13.2-20.54-16.69-20.54H183.52a.44.44,0,0,0-.38.67c2.81,4.24,19.11,27.22,42.48,27.22h93.44A5.23,5.23,0,0,1,324.29,37h0a5.5,5.5,0,0,1-5.5,5.5H212.94a.09.09,0,0,0-.08.15c1.67,2.13,22,27.74,38.5,27.74h84.5a7.74,7.74,0,0,1,7.74,7.74h0a7.28,7.28,0,0,1-7.28,7.28H245.05c-.06,0-.09,0-.06.09,1.25,1.75,20.32,27.79,51.41,27.79h62a6.65,6.65,0,0,1,6.65,6.65h0a6.22,6.22,0,0,1-6.22,6.22H285.9c-.09,0-.15.09-.09.16,1.85,2.15,22.6,25.58,49.21,25.58h81.24A2,2,0,0,0,418.26,149.56Z" transform="translate(-3.6 -3.92)"/><rect class="cls-1" x="64.35" y="95.46" width="150.16" height="10.73" rx="2.5"/><rect class="cls-1" x="201.64" y="125.49" width="45.05" height="10.73" rx="2.5"/><rect class="cls-1" x="96.53" y="125.49" width="87.95" height="10.73" rx="2.5"/><rect class="cls-1" x="42.9" y="125.49" width="34.32" height="10.73" rx="2.5"/><rect class="cls-1" x="38.61" y="63.28" width="117.98" height="10.73" rx="2.5"/><rect class="cls-1" x="178.04" y="63.28" width="32.18" height="10.73" rx="2.5"/><rect class="cls-1" y="63.28" width="19.31" height="10.73" rx="2.5"/></g></svg>