<svg xmlns="http://www.w3.org/2000/svg" viewBox="0 0 295 148.28"><defs><style>.cls-1{fill:#fff;}</style></defs><title>Ativo 1</title><g id="Camada_2" data-name="Camada 2"><g id="Camada_2-2" data-name="Camada 2"><path class="cls-1" d="M35.64,135.57v1H32.15v11.54H30.89V136.61H27.38v-1Z"/><path class="cls-1" d="M44.34,148.15l-3.12-5.26H38.9v5.26H37.64V135.57h3.78a4.52,4.52,0,0,1,3.2,1,3.45,3.45,0,0,1,1.09,2.64,3.54,3.54,0,0,1-.79,2.33,3.73,3.73,0,0,1-2.31,1.25l3.24,5.35Zm-5.44-6.28h2.54a3.09,3.09,0,0,0,2.22-.72,2.55,2.55,0,0,0,.75-1.93,2.5,2.5,0,0,0-.72-1.92,3.24,3.24,0,0,0-2.27-.67H38.9Z"/><path class="cls-1" d="M55.5,145.16H49.77l-1.09,3H47.34l4.59-12.42h1.43l4.57,12.42H56.6Zm-.38-1-2.48-6.81-2.49,6.81Z"/><path class="cls-1" d="M69.43,148.15H68.17l-7-10.58v10.58H59.94V135.57H61.2l7,10.56V135.57h1.26Z"/><path class="cls-1" d="M73.92,147.84a3.53,3.53,0,0,1-1.48-1.2,3.15,3.15,0,0,1-.58-1.73h1.33a2.53,2.53,0,0,0,.81,1.61,2.93,2.93,0,0,0,2.11.69,3,3,0,0,0,2-.65,2.13,2.13,0,0,0,.75-1.67,2,2,0,0,0-.41-1.3,2.55,2.55,0,0,0-1-.74,16,16,0,0,0-1.69-.53,14.4,14.4,0,0,1-2-.67,3.13,3.13,0,0,1-1.26-1,3,3,0,0,1-.52-1.85,3.14,3.14,0,0,1,.5-1.74,3.34,3.34,0,0,1,1.42-1.19,4.91,4.91,0,0,1,2.11-.44,4.41,4.41,0,0,1,2.82.86,3.22,3.22,0,0,1,1.23,2.2H78.68a2.23,2.23,0,0,0-.84-1.37,3.33,3.33,0,0,0-3.84,0,2,2,0,0,0-.75,1.64,1.88,1.88,0,0,0,.41,1.28,2.64,2.64,0,0,0,1,.74,15,15,0,0,0,1.69.54,16.64,16.64,0,0,1,2,.67,3.41,3.41,0,0,1,1.28,1,3,3,0,0,1,.52,1.84,3.25,3.25,0,0,1-.47,1.67,3.33,3.33,0,0,1-1.39,1.28,4.66,4.66,0,0,1-2.19.49A5.19,5.19,0,0,1,73.92,147.84Z"/><path class="cls-1" d="M89.57,141.8a4.52,4.52,0,0,1-3.18,1H83.85v5.36H82.59V135.57h3.8a4.51,4.51,0,0,1,3.17,1,3.76,3.76,0,0,1,0,5.24Zm-.23-2.61a2.5,2.5,0,0,0-.7-1.91,3.27,3.27,0,0,0-2.25-.65H83.85v5.08h2.54C88.35,141.71,89.34,140.87,89.34,139.19Z"/><path class="cls-1" d="M95.22,147.46A6,6,0,0,1,93,145.17a7.13,7.13,0,0,1,0-6.64,6,6,0,0,1,2.24-2.29,6.58,6.58,0,0,1,6.36,0,5.92,5.92,0,0,1,2.23,2.29,7.21,7.21,0,0,1,0,6.64,5.92,5.92,0,0,1-2.23,2.29,6.58,6.58,0,0,1-6.36,0Zm5.69-.93a4.61,4.61,0,0,0,1.77-1.86,6.51,6.51,0,0,0,0-5.63,4.64,4.64,0,0,0-1.77-1.85,4.93,4.93,0,0,0-2.52-.65,5,5,0,0,0-2.52.65A4.62,4.62,0,0,0,94.11,139a6.42,6.42,0,0,0,0,5.63,4.58,4.58,0,0,0,1.76,1.86,5,5,0,0,0,2.52.65A4.93,4.93,0,0,0,100.91,146.53Z"/><path class="cls-1" d="M113.62,148.15l-3.11-5.26h-2.33v5.26h-1.26V135.57h3.78a4.52,4.52,0,0,1,3.2,1,3.45,3.45,0,0,1,1.09,2.64,3.54,3.54,0,0,1-.79,2.33,3.73,3.73,0,0,1-2.31,1.25l3.24,5.35Zm-5.44-6.28h2.54a3.07,3.07,0,0,0,2.22-.72,2.55,2.55,0,0,0,.75-1.93,2.5,2.5,0,0,0-.72-1.92,3.24,3.24,0,0,0-2.27-.67h-2.52Z"/><path class="cls-1" d="M124.85,135.57v1h-3.49v11.54H120.1V136.61h-3.51v-1Z"/><path class="cls-1" d="M128.11,136.59v4.7h4.77v1h-4.77v4.78h5.31v1h-6.57v-12.6h6.57v1Z"/><path class="cls-1" d="M142.09,136.59v4.7h4.77v1h-4.77v4.78h5.31v1h-6.57v-12.6h6.57v1Z"/><path class="cls-1" d="M156.08,147.12h4.52v1h-5.78V135.57h1.26Z"/><path class="cls-1" d="M164.88,147.46a5.94,5.94,0,0,1-2.24-2.29,7.13,7.13,0,0,1,0-6.64,5.94,5.94,0,0,1,2.24-2.29,6.29,6.29,0,0,1,3.17-.82,6.37,6.37,0,0,1,3.19.82,5.92,5.92,0,0,1,2.23,2.29,7.21,7.21,0,0,1,0,6.64,5.92,5.92,0,0,1-2.23,2.29,6.37,6.37,0,0,1-3.19.82A6.29,6.29,0,0,1,164.88,147.46Zm5.69-.93a4.58,4.58,0,0,0,1.76-1.86,6.42,6.42,0,0,0,0-5.63,4.62,4.62,0,0,0-1.76-1.85,5.21,5.21,0,0,0-5,0,4.71,4.71,0,0,0-1.77,1.85,6.51,6.51,0,0,0,0,5.63,4.67,4.67,0,0,0,1.77,1.86,5.21,5.21,0,0,0,5,0Z"/><path class="cls-1" d="M186.48,139.24a4.26,4.26,0,0,0-1.65-2,4.63,4.63,0,0,0-2.6-.71,5,5,0,0,0-2.52.64,4.69,4.69,0,0,0-1.76,1.85,6.29,6.29,0,0,0,0,5.57,4.62,4.62,0,0,0,1.76,1.85,5.21,5.21,0,0,0,4.89.08,4.24,4.24,0,0,0,1.69-1.62,5.26,5.26,0,0,0,.73-2.45h-5.29v-1h6.62v.92a6.42,6.42,0,0,1-.9,3,5.86,5.86,0,0,1-2.17,2.11,6,6,0,0,1-3.05.78,6.32,6.32,0,0,1-3.17-.82,6,6,0,0,1-2.24-2.29,7.13,7.13,0,0,1,0-6.64,6,6,0,0,1,2.24-2.29,6.32,6.32,0,0,1,3.17-.82,6.23,6.23,0,0,1,3.53,1,5.73,5.73,0,0,1,2.2,2.81Z"/><path class="cls-1" d="M192.94,132.83,189.25,135v-1l3.69-2.3Zm-1,2.74v12.58h-1.26V135.57Z"/><path class="cls-1" d="M196.41,147.84a3.56,3.56,0,0,1-1.49-1.2,3.14,3.14,0,0,1-.57-1.73h1.33a2.53,2.53,0,0,0,.81,1.61,2.92,2.92,0,0,0,2.1.69,3,3,0,0,0,2-.65,2.13,2.13,0,0,0,.75-1.67,1.93,1.93,0,0,0-.42-1.3,2.51,2.51,0,0,0-1-.74,16,16,0,0,0-1.69-.53,14,14,0,0,1-2-.67,3.13,3.13,0,0,1-1.26-1,3,3,0,0,1-.52-1.85,3.06,3.06,0,0,1,.5-1.74,3.28,3.28,0,0,1,1.42-1.19,4.88,4.88,0,0,1,2.11-.44,4.36,4.36,0,0,1,2.81.86,3.2,3.2,0,0,1,1.24,2.2h-1.37a2.29,2.29,0,0,0-.85-1.37,3.31,3.31,0,0,0-3.83,0,2,2,0,0,0-.76,1.64,1.88,1.88,0,0,0,.42,1.28,2.57,2.57,0,0,0,1,.74,15,15,0,0,0,1.69.54,15.81,15.81,0,0,1,2,.67,3.34,3.34,0,0,1,1.28,1,3,3,0,0,1,.52,1.84,3.24,3.24,0,0,1-.46,1.67,3.45,3.45,0,0,1-1.39,1.28,4.67,4.67,0,0,1-2.2.49A5.17,5.17,0,0,1,196.41,147.84Z"/><path class="cls-1" d="M212.44,135.57v1h-3.5v11.54h-1.26V136.61h-3.51v-1Z"/><path class="cls-1" d="M215.69,135.57v12.58h-1.26V135.57Z"/><path class="cls-1" d="M218.79,138.53a5.94,5.94,0,0,1,2.21-2.29,6.18,6.18,0,0,1,3.14-.82,6.45,6.45,0,0,1,3.61,1,5.67,5.67,0,0,1,2.18,2.82h-1.47a4.34,4.34,0,0,0-1.65-2,4.8,4.8,0,0,0-2.67-.72,4.88,4.88,0,0,0-2.5.65,4.52,4.52,0,0,0-1.73,1.86,6.6,6.6,0,0,0,0,5.63,4.55,4.55,0,0,0,1.73,1.85,5.26,5.26,0,0,0,5.17-.06,4.31,4.31,0,0,0,1.65-2h1.47a5.62,5.62,0,0,1-2.19,2.79,6.43,6.43,0,0,1-3.6,1,6.18,6.18,0,0,1-3.14-.82,6,6,0,0,1-2.21-2.28,7.19,7.19,0,0,1,0-6.63Z"/><path class="cls-1" d="M239.72,145.16H234l-1.1,3h-1.33l4.59-12.42h1.42l4.57,12.42h-1.33Zm-.37-1-2.49-6.81-2.48,6.81Z"/><path class="cls-1" d="M63.43,93.52v4.86h-8v25.16h-6V98.38h-8V93.52Z"/><path class="cls-1" d="M83.29,123.54l-6.62-11.7H73.83v11.7h-6v-30H79.08A13.09,13.09,0,0,1,85,94.75a8.51,8.51,0,0,1,3.68,3.31,8.87,8.87,0,0,1-5.61,13.31l7.18,12.17Zm-9.46-16.21h5a5,5,0,0,0,3.65-1.19,4.4,4.4,0,0,0,1.2-3.29,4.21,4.21,0,0,0-1.2-3.2,5.14,5.14,0,0,0-3.65-1.14h-5Z"/><path class="cls-1" d="M101.4,93.52v30h-6v-30Z"/><path class="cls-1" d="M140.05,93.52v30h-6V104l-8,19.53h-4.56L113.35,104v19.53h-6v-30h6.84l9.54,22.32,9.55-22.32Z"/><path class="cls-1" d="M152,118.76h9.89v4.78H146v-30h6Z"/><path class="cls-1" d="M171.92,121.86a14.78,14.78,0,0,1-5.59-5.48,16.17,16.17,0,0,1,0-15.83,14.78,14.78,0,0,1,5.59-5.48,16.16,16.16,0,0,1,15.5,0,14.72,14.72,0,0,1,5.54,5.48,16.3,16.3,0,0,1,0,15.83,14.63,14.63,0,0,1-5.56,5.48,16.12,16.12,0,0,1-15.48,0Zm12.51-4.62a8.43,8.43,0,0,0,3.22-3.51,11.42,11.42,0,0,0,1.17-5.29,11.27,11.27,0,0,0-1.17-5.26,8.32,8.32,0,0,0-3.22-3.47,9.34,9.34,0,0,0-4.77-1.2,9.45,9.45,0,0,0-4.8,1.2,8.24,8.24,0,0,0-3.24,3.47,11.27,11.27,0,0,0-1.17,5.26,11.42,11.42,0,0,0,1.17,5.29,8.35,8.35,0,0,0,3.24,3.51,9.36,9.36,0,0,0,4.8,1.22A9.25,9.25,0,0,0,184.43,117.24Z"/><path class="cls-1" d="M220.38,102.55a7.1,7.1,0,0,0-2.84-2.88,8.66,8.66,0,0,0-4.22-1,9.17,9.17,0,0,0-4.73,1.21,8.31,8.31,0,0,0-3.22,3.44,12.14,12.14,0,0,0,0,10.4,8.4,8.4,0,0,0,3.29,3.44,9.73,9.73,0,0,0,4.9,1.21,8.52,8.52,0,0,0,5.64-1.83,8.75,8.75,0,0,0,2.88-5.1H211.78v-4.6H228v5.25a14,14,0,0,1-2.58,5.8,14.5,14.5,0,0,1-5.1,4.28,14.87,14.87,0,0,1-7,1.61,15.87,15.87,0,0,1-7.85-2,14.23,14.23,0,0,1-5.5-5.44,16.7,16.7,0,0,1,0-15.85,14.22,14.22,0,0,1,5.5-5.46,15.79,15.79,0,0,1,7.8-2,15.6,15.6,0,0,1,8.82,2.48,12.66,12.66,0,0,1,5.16,6.94Z"/><rect class="cls-1" x="94" y="58.5" width="21" height="5" rx="2.5"/><rect class="cls-1" x="45" y="58.5" width="41" height="5" rx="2.5"/><rect class="cls-1" x="20" y="58.5" width="16" height="5" rx="2.5"/><path class="cls-1" d="M293.5,61.5A1.5,1.5,0,0,1,292,60V49.94a1.53,1.53,0,0,0-.23-.81,21.07,21.07,0,0,0-16-9.59,1.41,1.41,0,0,1-1.16-.82L267.2,22.53A2.63,2.63,0,0,0,264.82,21H242a1.5,1.5,0,0,1-1.5-1.5V2.7A2.7,2.7,0,0,0,237.8,0H183.13a1.5,1.5,0,0,0-1.3,2.26l3.69,6.25A63.93,63.93,0,0,1,193.75,32c1.05,7.4,5.07,34.26,5.24,35.45,0,0,0,.06,0,.09.18.85,2.86,12.45,12.49,12.45,8,0,10.55-6.69,11.26-9.39a1.49,1.49,0,0,1,1.45-1.11h38.58a1.49,1.49,0,0,1,1.45,1.11C265,73.31,267.52,80,275.5,80s10.55-6.69,11.26-9.39a1.49,1.49,0,0,1,1.45-1.11h5.29A1.5,1.5,0,0,0,295,68V63A1.5,1.5,0,0,0,293.5,61.5ZM270.22,40.57a3.2,3.2,0,0,1-3,1.93H243.51A1.52,1.52,0,0,1,242,41V25.57a1.07,1.07,0,0,1,1.07-1.07h21.22a1.07,1.07,0,0,1,1,.65c.79,1.82,3.09,7.08,4.72,10.35A5.91,5.91,0,0,1,270.22,40.57Z"/><path class="cls-1" d="M193.31,67.89l-2.86-16.54L188,34.5l-2-10a43.76,43.76,0,0,0-5.72-14.92C177.52,5,174.13,0,172.5,0H83.87a.2.2,0,0,0-.17.31C85,2.29,92.61,13,103.5,13h43.56a2.44,2.44,0,0,1,2.44,2.44h0A2.56,2.56,0,0,1,146.94,18H97.59a0,0,0,0,0,0,.07c.78,1,10.28,12.93,18,12.93h39.39a3.6,3.6,0,0,1,3.61,3.61h0A3.39,3.39,0,0,1,155.11,38H112.56s0,0,0,0c.58.82,9.48,13,24,13h28.9a3.1,3.1,0,0,1,3.1,3.1h0a2.9,2.9,0,0,1-2.9,2.9h-34a0,0,0,0,0,0,.07c.86,1,10.54,11.93,22.94,11.93h37.87A1,1,0,0,0,193.31,67.89Z"/><rect class="cls-1" x="30" y="44.5" width="70" height="5" rx="2.5"/><rect class="cls-1" x="18" y="29.5" width="55" height="5" rx="2.5"/><rect class="cls-1" x="83" y="29.5" width="15" height="5" rx="2.5"/><rect class="cls-1" y="29.5" width="9" height="5" rx="2.5"/></g></g></svg>