<svg xmlns="http://www.w3.org/2000/svg" viewBox="0 0 295 158.3"><defs><style>.cls-1{font-size:18px;fill:#e6e6e6;font-family:Poppins-Light, Poppins;font-weight:300;}.cls-2{font-size:43px;fill:#d24b18;font-family:Poppins-SemiBold, Poppins;font-weight:600;}.cls-3{fill:#fd8300;}.cls-4{fill:#d84602;}</style></defs><title>logo-texto-claro</title><g id="Camada_2" data-name="Camada 2"><text class="cls-1" transform="translate(26.84 148.15)">TRANSPORTE E LOGÍSTICA</text><text class="cls-2" transform="translate(40.04 123.54)">TRIMLOG</text><rect class="cls-3" x="94" y="58.5" width="21" height="5" rx="2.5"/><rect class="cls-3" x="45" y="58.5" width="41" height="5" rx="2.5"/><rect class="cls-3" x="20" y="58.5" width="16" height="5" rx="2.5"/><path class="cls-4" d="M300.71,69.5a1.5,1.5,0,0,1-1.5-1.5V57.94a1.44,1.44,0,0,0-.23-.81,21.06,21.06,0,0,0-16-9.59,1.4,1.4,0,0,1-1.16-.82l-7.44-16.19A2.63,2.63,0,0,0,272,29H249.21a1.5,1.5,0,0,1-1.5-1.5V10.7A2.7,2.7,0,0,0,245,8H190.34a1.5,1.5,0,0,0-1.29,2.26l3.69,6.25A64.11,64.11,0,0,1,201,40c1.05,7.4,5.06,34.26,5.24,35.45,0,0,0,.06,0,.09.19.85,2.86,12.45,12.49,12.45,8,0,10.55-6.69,11.26-9.39a1.5,1.5,0,0,1,1.45-1.11H270a1.5,1.5,0,0,1,1.45,1.11c.71,2.7,3.27,9.39,11.25,9.39s10.55-6.69,11.26-9.39a1.5,1.5,0,0,1,1.45-1.11h5.29a1.5,1.5,0,0,0,1.5-1.5V71A1.5,1.5,0,0,0,300.71,69.5ZM277.44,48.57a3.2,3.2,0,0,1-3,1.93H250.72A1.52,1.52,0,0,1,249.21,49V33.57a1.07,1.07,0,0,1,1.08-1.07H271.5a1.07,1.07,0,0,1,1,.65c.79,1.82,3.09,7.08,4.72,10.35A6,6,0,0,1,277.44,48.57Z" transform="translate(-7.21 -8)"/><path class="cls-3" d="M200.52,75.89l-2.86-16.54L195.21,42.5l-2-10a43.94,43.94,0,0,0-5.71-14.92C184.73,13,181.34,8,179.71,8H91.09a.2.2,0,0,0-.17.31c1.3,2,8.9,12.69,19.79,12.69h43.57a2.43,2.43,0,0,1,2.43,2.44h0A2.56,2.56,0,0,1,154.15,26H104.81s-.07,0,0,.07c.78,1,10.28,12.93,17.94,12.93h39.4a3.6,3.6,0,0,1,3.6,3.61h0A3.39,3.39,0,0,1,162.32,46H119.77s0,0,0,0c.59.82,9.48,13,24,13h28.9a3.1,3.1,0,0,1,3.1,3.1h0a2.9,2.9,0,0,1-2.9,2.9h-34s-.07,0,0,.07c.86,1,10.53,11.93,22.93,11.93h37.88A.94.94,0,0,0,200.52,75.89Z" transform="translate(-7.21 -8)"/><rect class="cls-3" x="30" y="44.5" width="70" height="5" rx="2.5"/><rect class="cls-3" x="18" y="29.5" width="55" height="5" rx="2.5"/><rect class="cls-3" x="83" y="29.5" width="15" height="5" rx="2.5"/><rect class="cls-3" y="29.5" width="9" height="5" rx="2.5"/></g></svg>